Coordinates
version=1
nRows=12
nColumns=33
inDegrees=yes

Units are S.I. units (second, meters, Newtons, ...)
Angles are in degrees.

endheader
time	ground_thorax_rot_x	ground_thorax_rot_y	ground_thorax_rot_z	ground_thorax_tx	ground_thorax_ty	ground_thorax_tz	clav_prot_r	clav_elev_r	scapula_abduction_r	scapula_elevation_r	scapula_upward_rot_r	scapula_winging_r	shoulder_elv_r	plane_of_elev_r	axial_rot_r	elbow_flexion_r	pro_sup_r	wrist_flex_r	wrist_dev_r	clav_prot_l	clav_elev_l	scapula_abduction_l	scapula_elevation_l	scapula_upward_rot_l	scapula_winging_l	shoulder_elv_l	plane_of_elev_l	axial_rot_l	elbow_flexion_l	pro_sup_l	wrist_flex_l	wrist_dev_l
      5.01000000	     26.15938779	     27.11628556	     44.94796023	    -55.82958031	    772.83187264	      7.28420963	     14.81957111	     37.77095136	     34.34123527	     45.00000000	    -45.00000000	  -4399.28354723	  -1736.03951587	     29.46541963	     76.74375435	    741.14146954	    172.94622427	     12.35838773	     -1.13440148	     10.62373349	    -45.00000000	    -37.04565079	     45.00000000	    -45.00000000	   1172.99406142	  -1902.94950080	    139.76816195	    177.55999141	    361.03762957	     45.98400352	      9.84930000	    -18.83468106
      5.02000000	     27.00773696	     26.34737299	     43.77502292	    -56.92109993	    773.11315300	      7.51127761	     15.65708468	     38.08348309	     34.89794687	     45.00000000	    -45.00000000	  -4399.26540289	  -1735.06103296	     31.21554144	     38.37446300	    728.12930963	     28.51547394	     17.43921408	     14.17894579	      9.95950274	    -45.00000000	    -36.56132972	     45.00000000	    -45.00000000	   1172.21694835	  -1902.38766550	    139.54016111	    179.99999979	    360.77411847	     42.58580819	     11.17903374	    -19.07704672
      5.03000000	     26.93279416	     26.26310490	     43.80603145	    -58.24414759	    773.42754747	      7.69407667	     15.26415952	     38.05161190	     34.75360636	     45.00000000	    -45.00000000	  -4399.45274707	  -1734.86930723	     31.37323759	     38.11542410	    728.30469144	     28.48880919	     17.52018472	     14.28205342	     10.74045327	    -45.00000000	    -36.90328777	     45.00000000	    -45.00000000	   1172.42297167	  -1902.16468717	    139.41044407	    179.99999979	    360.95274753	     42.48935232	     11.27386823	    -19.29626725
      5.04000000	     27.04881832	     26.08281750	     43.67612226	    -59.78503006	    773.82210923	      7.83800695	     15.28993767	     38.06330396	     34.90019706	     45.00000000	    -45.00000000	  -4399.74495033	  -1734.65530900	     31.45954934	     37.85088495	    728.53274723	     28.35856868	     17.59960695	     14.11304453	     10.66038599	    -45.00000000	    -36.86902289	     45.00000000	    -45.00000000	   1172.54944571	  -1901.87410506	    139.24158155	    179.99999979	    361.16734586	     42.08360959	     11.26402211	    -19.38962713
      5.05000000	     27.23765376	     25.83091683	     43.43999089	    -61.53689025	    774.33139862	      7.95063217	     15.27959689	     38.10534840	     35.08303341	     45.00000000	    -45.00000000	  -4400.00075089	  -1734.41202471	     31.62687656	     37.59104817	    728.69443975	     28.18803477	     17.66372671	     13.94400175	     10.65123028	    -45.00000000	    -36.87394435	     45.00000000	    -45.00000000	   1172.68256244	  -1901.56758780	    139.05505512	    179.99999979	    361.38604175	     41.49688726	     11.28642164	    -19.50180780
      5.06000000	     27.38797879	     25.66337783	     43.23747309	    -63.49789731	    774.99189747	      8.04015363	     15.31926005	     38.17801987	     35.23025728	     45.00000000	    -45.00000000	  -4400.30938908	  -1734.10363824	     31.71294429	     37.30665033	    728.99820013	     27.96222767	     17.74288008	     13.73140051	     10.65004548	    -45.00000000	    -36.85779157	     45.00000000	    -45.00000000	   1172.81001521	  -1901.24298505	    138.89908172	    179.99999979	    361.69093254	     40.71572062	     11.28545061	    -19.59002271
      5.07000000	     27.63535639	     25.35841601	     42.86501895	    -65.67201932	    775.83629260	      8.11356633	     15.32487099	     38.22423406	     35.48657050	     45.00000000	    -45.00000000	  -4400.63645873	  -1733.82789238	     31.88672427	     36.97671731	    729.29145896	     27.72278584	     17.82708312	     13.48848022	     10.64818389	    -45.00000000	    -36.92725999	     45.00000000	    -45.00000000	   1172.98789660	  -1900.89262444	    138.67566626	    179.99999979	    362.00865776	     39.84329218	     11.28363932	    -19.69701475
      5.08000000	     27.81598225	     25.16070681	     42.53579393	    -68.06618480	    776.89039218	      8.17630221	     15.39060583	     38.26780812	     35.70493523	     45.00000000	    -45.00000000	  -4400.96588393	  -1733.51143107	     31.91647630	     36.57081514	    729.66045215	     27.46619850	     17.92035899	     13.22493306	     10.62850397	    -45.00000000	    -37.10944178	     45.00000000	    -45.00000000	   1173.12036674	  -1900.51029852	    138.49727926	    179.99999979	    362.38374208	     38.82611913	     11.25675151	    -19.77215025
      5.09000000	     28.10401047	     24.82338220	     42.09854464	    -70.68663461	    778.17077703	      8.23166801	     15.37285309	     38.30181740	     35.98134610	     45.00000000	    -45.00000000	  -4401.30303843	  -1733.21376333	     32.09920586	     36.28528915	    729.92368143	     27.26998820	     18.01621019	     12.95744998	     10.63761490	    -45.00000000	    -37.04633836	     45.00000000	    -45.00000000	   1173.22038539	  -1900.06098639	    138.30315659	    179.99999979	    362.74082941	     37.74256072	     11.17791959	    -19.85449478
      5.10000000	     28.33408737	     24.56903694	     41.63705919	    -73.54122204	    779.68464742	      8.28225858	     15.46381381	     38.32579920	     36.24665200	     45.00000000	    -45.00000000	  -4401.68088144	  -1732.84938075	     32.17386787	     35.82368774	    730.32108005	     27.02878602	     18.12286674	     12.62990767	     10.61376671	    -45.00000000	    -37.31755557	     45.00000000	    -45.00000000	   1173.42775477	  -1899.62619132	    138.07737655	    179.99999979	    363.21707095	     36.55839726	     11.11200326	    -19.93076085
      5.11000000	     28.81751302	     24.10246098	     40.89654629	    -76.63669496	    781.43079099	      8.33001835	     15.44311876	     38.45483879	     36.63961527	     45.00000000	    -45.00000000	  -4402.03797270	  -1732.41249873	     32.42328001	     35.51605571	    730.55567465	     26.86619876	     18.22226320	     12.27377733	     10.61695540	    -45.00000000	    -37.36696564	     45.00000000	    -45.00000000	   1173.51293357	  -1899.17332263	    137.83513570	    179.99999979	    363.68537258	     35.39884317	     10.95675913	    -20.01934089
      5.12000000	     29.01464178	     23.85446758	     40.39975856	    -79.97215256	    783.39603038	      8.37769190	     15.59259376	     38.53328551	     36.82838972	     45.00000000	    -45.00000000	  -4402.34533652	  -1731.99404099	     32.42223061	     34.99459281	    730.94664452	     26.65166615	     18.32607658	     11.87901080	     10.57847141	    -45.00000000	    -37.72873971	     45.00000000	    -45.00000000	   1173.70889070	  -1898.67608716	    137.65220175	    179.99999979	    364.16129297	     34.14926266	     10.87318462	    -20.07305768
